  <svg
    width="2890"
    height="2088"
    className="partners__background"
    viewBox="0 0 2890 2088"
    fill="none"
    xmlns="http://www.w3.org/2000/svg"
  >
    <g filter="url(#filter0_f_1_4)">
      <path
        d="M947.195 951C947.195 1156.73 157.469 1706.5 363.195 1706.5C568.921 1706.5 1736.7 1665.73 1736.7 1460C1736.7 1254.27 1365.92 329 1160.2 329C954.469 329 947.195 745.274 947.195 951Z"
        fill="#EB00FF"
      />
    </g>
    <g filter="url(#filter1_f_1_4)">
      <path
        d="M1667.19 1293.89C1763.87 1112.3 2719.32 998.128 2537.72 901.451C2356.13 804.774 1306.17 291.991 1209.49 473.586C1112.82 655.181 1005.28 1646.16 1186.88 1742.84C1368.47 1839.52 1570.51 1475.49 1667.19 1293.89Z"
        fill="#FF00A6"
      />
    </g>
    <defs>
      <filter
        id="filter0_f_1_4"
        x="0.200012"
        y="0.200012"
        width="2065.3"
        height="2035.1"
        filterUnits="userSpaceOnUse"
        colorInterpolationFilters="sRGB"
      >
        <feFlood floodOpacity="0" result="BackgroundImageFix" />
        <feBlend
          mode="normal"
          in="SourceGraphic"
          in2="BackgroundImageFix"
          result="shape"
        />
        <feGaussianBlur
          stdDeviation="164.4"
          result="effect1_foregroundBlur_1_4"
        />
      </filter>
      <filter
        id="filter1_f_1_4"
        x="759.735"
        y="106.186"
        width="2129.68"
        height="1981.51"
        filterUnits="userSpaceOnUse"
        colorInterpolationFilters="sRGB"
      >
        <feFlood floodOpacity="0" result="BackgroundImageFix" />
        <feBlend
          mode="normal"
          in="SourceGraphic"
          in2="BackgroundImageFix"
          result="shape"
        />
        <feGaussianBlur
          stdDeviation="164.4"
          result="effect1_foregroundBlur_1_4"
        />
      </filter>
    </defs>
  </svg>
