        <svg
          viewBox="0 0 118 22"
          fill="none"
          xmlns="http://www.w3.org/2000/svg"
        >
          <path
            d="M0.34 21V-1.43051e-06H11.35C12.77 -1.43051e-06 14.03 0.289999 15.13 0.87C16.23 1.45 17.08 2.27 17.68 3.33C18.3 4.39 18.61 5.61 18.61 6.99C18.61 8.39 18.3 9.62 17.68 10.68C17.08 11.74 16.23 12.56 15.13 13.14C14.03 13.72 12.77 14.01 11.35 14.01H4.51V21H0.34ZM11.17 10.14C12.17 10.14 12.96 9.86 13.54 9.3C14.14 8.72 14.44 7.95 14.44 6.99C14.44 6.05 14.14 5.3 13.54 4.74C12.96 4.16 12.17 3.87 11.17 3.87H4.51V10.14H11.17ZM23.7543 21.36C21.7543 21.36 20.2143 20.92 19.1343 20.04C18.0743 19.16 17.5443 17.98 17.5443 16.5C17.5443 15.02 18.0643 13.83 19.1043 12.93C20.1443 12.01 21.6843 11.55 23.7243 11.55H29.2443V11.16C29.2443 10.38 28.9243 9.76 28.2843 9.3C27.6643 8.84 26.7943 8.61 25.6743 8.61C24.5943 8.61 23.7643 8.76 23.1843 9.06C22.6243 9.36 22.2343 9.79 22.0143 10.35H18.1743C18.2743 9.45 18.6143 8.63 19.1943 7.89C19.7743 7.15 20.6043 6.56 21.6843 6.12C22.7843 5.68 24.0943 5.46 25.6143 5.46C27.1343 5.46 28.4543 5.7 29.5743 6.18C30.7143 6.66 31.5843 7.34 32.1843 8.22C32.8043 9.1 33.1143 10.12 33.1143 11.28V21H29.7543L29.3343 19.44H29.1543C28.6943 19.96 27.9843 20.41 27.0243 20.79C26.0643 21.17 24.9743 21.36 23.7543 21.36ZM24.5643 18.27C26.0043 18.27 27.1443 17.96 27.9843 17.34C28.8243 16.7 29.2443 15.83 29.2443 14.73V14.37H24.0843C23.1843 14.37 22.5143 14.55 22.0743 14.91C21.6343 15.25 21.4143 15.72 21.4143 16.32C21.4143 16.9 21.6743 17.37 22.1943 17.73C22.7143 18.09 23.5043 18.27 24.5643 18.27ZM34.8515 21V5.82H38.2115L38.5715 7.2H38.7515C39.4515 6.28 40.4515 5.82 41.7515 5.82H45.1115V9.36H42.1115C41.0115 9.36 40.1615 9.63 39.5615 10.17C38.9815 10.71 38.6915 11.48 38.6915 12.48V21H34.8515ZM52.54 21C51.26 21 50.27 20.68 49.57 20.04C48.87 19.38 48.52 18.47 48.52 17.31V9.36H45.76V5.82H48.52V1.26H52.39V5.82H56.44V9.36H52.39V16.26C52.39 16.92 52.76 17.25 53.5 17.25H56.44V21H52.54Z"
            fill="#EB00FF"
          />
          <path
            d="M57.8308 21V5.82H61.1908L61.5508 7.29H61.7308C62.2108 6.81 62.8808 6.39 63.7408 6.03C64.6208 5.65 65.5608 5.46 66.5608 5.46C67.9208 5.46 69.1308 5.74 70.1908 6.3C71.2708 6.86 72.1208 7.69 72.7408 8.79C73.3608 9.89 73.6708 11.21 73.6708 12.75V21H69.8008V13.2C69.8008 11.96 69.4208 10.98 68.6608 10.26C67.9008 9.54 66.9608 9.18 65.8408 9.18C64.6808 9.18 63.6908 9.55 62.8708 10.29C62.0708 11.03 61.6708 12 61.6708 13.2V21H57.8308ZM83.0613 21.36C81.4813 21.36 80.0413 21.01 78.7413 20.31C77.4413 19.61 76.4113 18.66 75.6513 17.46C74.9113 16.24 74.5413 14.89 74.5413 13.41C74.5413 11.91 74.9213 10.56 75.6813 9.36C76.4413 8.14 77.4813 7.19 78.8013 6.51C80.1213 5.81 81.5913 5.46 83.2113 5.46C84.8113 5.46 86.2513 5.79 87.5313 6.45C88.8113 7.09 89.8113 7.99 90.5313 9.15C91.2713 10.31 91.6413 11.61 91.6413 13.05C91.6413 13.79 91.5813 14.34 91.4613 14.7H78.3213C78.5413 15.72 79.0913 16.55 79.9713 17.19C80.8713 17.83 81.8813 18.15 83.0013 18.15C84.8413 18.15 86.1713 17.62 86.9913 16.56H91.1013C90.5013 17.92 89.5413 19.06 88.2213 19.98C86.9013 20.9 85.1813 21.36 83.0613 21.36ZM87.8613 11.97C87.7213 11.05 87.2013 10.27 86.3013 9.63C85.4213 8.99 84.3913 8.67 83.2113 8.67C81.9713 8.67 80.9013 8.98 80.0013 9.6C79.1213 10.2 78.5413 10.99 78.2613 11.97H87.8613ZM92.6402 21V5.82H96.0002L96.3602 7.2H96.5402C97.2402 6.28 98.2402 5.82 99.5402 5.82H102.9V9.36H99.9002C98.8002 9.36 97.9502 9.63 97.3502 10.17C96.7702 10.71 96.4802 11.48 96.4802 12.48V21H92.6402ZM110.629 21.36C108.169 21.36 106.309 20.9 105.049 19.98C103.789 19.04 103.159 17.84 103.159 16.38H106.969C106.969 16.94 107.289 17.4 107.929 17.76C108.589 18.1 109.489 18.27 110.629 18.27C111.749 18.27 112.589 18.13 113.149 17.85C113.709 17.57 113.989 17.2 113.989 16.74C113.989 16.24 113.799 15.87 113.419 15.63C113.039 15.39 112.409 15.2 111.529 15.06L108.979 14.67C107.139 14.37 105.749 13.86 104.809 13.14C103.869 12.4 103.399 11.39 103.399 10.11C103.399 8.75 103.999 7.64 105.199 6.78C106.419 5.9 108.139 5.46 110.359 5.46C111.819 5.46 113.089 5.68 114.169 6.12C115.269 6.54 116.109 7.13 116.689 7.89C117.269 8.63 117.559 9.45 117.559 10.35H113.749C113.709 9.81 113.379 9.38 112.759 9.06C112.159 8.72 111.359 8.55 110.359 8.55C109.339 8.55 108.559 8.69 108.019 8.97C107.479 9.23 107.209 9.6 107.209 10.08C107.209 10.52 107.399 10.86 107.779 11.1C108.159 11.34 108.739 11.51 109.519 11.61L112.159 12C114.019 12.3 115.419 12.83 116.359 13.59C117.299 14.33 117.769 15.35 117.769 16.65C117.769 18.03 117.159 19.16 115.939 20.04C114.719 20.92 112.949 21.36 110.629 21.36Z"
            fill="white"
          />
        </svg>
