          <svg
            width="101"
            height="99"
            viewBox="0 0 101 99"
            fill="none"
            xmlns="http://www.w3.org/2000/svg"
          >
            <path
              d="M50.4991 78.3477C66.3336 78.3477 79.1701 65.4322 79.1701 49.5C79.1701 33.5679 66.3336 20.6523 50.4991 20.6523C34.6646 20.6523 21.8281 33.5679 21.8281 49.5C21.8281 65.4322 34.6646 78.3477 50.4991 78.3477Z"
              stroke="white"
              stroke-width="4"
            />
            <path
              d="M50.6546 47.4521H65.1204V62.2825H59.3341L58.9822 59.7649H58.7476C57.8614 60.6303 56.6364 61.3646 55.0725 61.9678C53.5086 62.5447 51.9057 62.8332 50.2636 62.8332C47.3704 62.8332 44.7379 62.2431 42.3661 61.063C40.0203 59.8566 38.1566 58.1651 36.7752 55.9884C35.4199 53.8117 34.7422 51.3203 34.7422 48.5143C34.7422 45.6819 35.4199 43.1905 36.7752 41.0401C38.1566 38.8634 40.0333 37.185 42.4052 36.0048C44.777 34.7985 47.4095 34.1953 50.3027 34.1953C52.831 34.1953 55.1246 34.6805 57.1837 35.6508C59.2428 36.6211 60.937 37.8931 62.2663 39.4666C63.5956 41.0401 64.5079 42.7447 65.0031 44.5805H56.6755C56.1281 43.6101 55.2941 42.8234 54.1733 42.2202C53.0525 41.5908 51.7623 41.2761 50.3027 41.2761C48.8431 41.2761 47.5268 41.5777 46.3539 42.1809C45.181 42.7841 44.2557 43.6364 43.5781 44.7378C42.9264 45.8131 42.6006 47.0719 42.6006 48.5143C42.6006 49.9304 42.9264 51.1892 43.5781 52.2907C44.2557 53.3921 45.181 54.2445 46.3539 54.8476C47.5268 55.4508 48.8301 55.7524 50.2636 55.7524C51.8275 55.7524 53.1698 55.4377 54.2906 54.8083C55.4114 54.1789 56.1672 53.3921 56.5582 52.448H50.6546V47.4521Z"
              fill="white"
            />
          </svg>
