<svg
  viewBox="0 0 1805 287"
  fill="none"
  xmlns="http://www.w3.org/2000/svg"
>
  <path
    d="M0.356001 282V0.599981H147.89C166.918 0.599981 183.802 4.48599 198.542 12.258C213.282 20.03 224.672 31.018 232.712 45.222C241.02 59.426 245.174 75.774 245.174 94.266C245.174 113.026 241.02 129.508 232.712 143.712C224.672 157.916 213.282 168.904 198.542 176.676C183.802 184.448 166.918 188.334 147.89 188.334H56.234V282H0.356001ZM145.478 136.476C158.878 136.476 169.464 132.724 177.236 125.22C185.276 117.448 189.296 107.13 189.296 94.266C189.296 81.67 185.276 71.62 177.236 64.116C169.464 56.344 158.878 52.458 145.478 52.458H56.234V136.476H145.478ZM314.108 286.824C287.308 286.824 266.672 280.928 252.2 269.136C237.996 257.344 230.894 241.532 230.894 221.7C230.894 201.868 237.862 185.922 251.798 173.862C265.734 161.534 286.37 155.37 313.706 155.37H387.674V150.144C387.674 139.692 383.386 131.384 374.81 125.22C366.502 119.056 354.844 115.974 339.836 115.974C325.364 115.974 314.242 117.984 306.47 122.004C298.966 126.024 293.74 131.786 290.792 139.29H239.336C240.676 127.23 245.232 116.242 253.004 106.326C260.776 96.41 271.898 88.504 286.37 82.608C301.11 76.712 318.664 73.764 339.032 73.764C359.4 73.764 377.088 76.98 392.096 83.412C407.372 89.844 419.03 98.956 427.07 110.748C435.378 122.54 439.532 136.208 439.532 151.752V282H394.508L388.88 261.096H386.468C380.304 268.064 370.79 274.094 357.926 279.186C345.062 284.278 330.456 286.824 314.108 286.824ZM324.962 245.418C344.258 245.418 359.534 241.264 370.79 232.956C382.046 224.38 387.674 212.722 387.674 197.982V193.158H318.53C306.47 193.158 297.492 195.57 291.596 200.394C285.7 204.95 282.752 211.248 282.752 219.288C282.752 227.06 286.236 233.358 293.204 238.182C300.172 243.006 310.758 245.418 324.962 245.418ZM462.81 282V78.588H507.834L512.658 97.08H515.07C524.45 84.752 537.85 78.588 555.27 78.588H600.294V126.024H560.094C545.354 126.024 533.964 129.642 525.924 136.878C518.152 144.114 514.266 154.432 514.266 167.832V282H462.81ZM699.836 282C682.684 282 669.418 277.712 660.038 269.136C650.658 260.292 645.968 248.098 645.968 232.554V126.024H608.984V78.588H645.968V17.484H697.826V78.588H752.096V126.024H697.826V218.484C697.826 227.328 702.784 231.75 712.7 231.75H752.096V282H699.836Z"
    fill="#EB00FF"
  />
  <path
    d="M1000.88 282V78.588H1045.9L1050.73 98.286H1053.14C1059.57 91.854 1068.55 86.226 1080.07 81.402C1091.86 76.31 1104.46 73.764 1117.86 73.764C1136.08 73.764 1152.3 77.516 1166.5 85.02C1180.97 92.524 1192.36 103.646 1200.67 118.386C1208.98 133.126 1213.13 150.814 1213.13 171.45V282H1161.28V177.48C1161.28 160.864 1156.18 147.732 1146 138.084C1135.82 128.436 1123.22 123.612 1108.21 123.612C1092.67 123.612 1079.4 128.57 1068.41 138.486C1057.69 148.402 1052.33 161.4 1052.33 177.48V282H1000.88ZM1338.97 286.824C1317.79 286.824 1298.5 282.134 1281.08 272.754C1263.66 263.374 1249.86 250.644 1239.67 234.564C1229.76 218.216 1224.8 200.126 1224.8 180.294C1224.8 160.194 1229.89 142.104 1240.07 126.024C1250.26 109.676 1264.19 96.946 1281.88 87.834C1299.57 78.454 1319.27 73.764 1340.98 73.764C1362.42 73.764 1381.71 78.186 1398.86 87.03C1416.02 95.606 1429.42 107.666 1439.06 123.21C1448.98 138.754 1453.94 156.174 1453.94 175.47C1453.94 185.386 1453.13 192.756 1451.53 197.58H1275.45C1278.4 211.248 1285.77 222.37 1297.56 230.946C1309.62 239.522 1323.15 243.81 1338.16 243.81C1362.82 243.81 1380.64 236.708 1391.63 222.504H1446.7C1438.66 240.728 1425.8 256.004 1408.11 268.332C1390.42 280.66 1367.37 286.824 1338.97 286.824ZM1403.29 160.998C1401.41 148.67 1394.44 138.218 1382.38 129.642C1370.59 121.066 1356.79 116.778 1340.98 116.778C1324.36 116.778 1310.02 120.932 1297.96 129.24C1286.17 137.28 1278.4 147.866 1274.65 160.998H1403.29ZM1467.32 282V78.588H1512.35L1517.17 97.08H1519.58C1528.96 84.752 1542.36 78.588 1559.78 78.588H1604.81V126.024H1564.61C1549.87 126.024 1538.48 129.642 1530.44 136.878C1522.67 144.114 1518.78 154.432 1518.78 167.832V282H1467.32ZM1708.37 286.824C1675.41 286.824 1650.48 280.66 1633.6 268.332C1616.71 255.736 1608.27 239.656 1608.27 220.092H1659.33C1659.33 227.596 1663.61 233.76 1672.19 238.584C1681.03 243.14 1693.09 245.418 1708.37 245.418C1723.38 245.418 1734.63 243.542 1742.14 239.79C1749.64 236.038 1753.39 231.08 1753.39 224.916C1753.39 218.216 1750.85 213.258 1745.76 210.042C1740.66 206.826 1732.22 204.28 1720.43 202.404L1686.26 197.178C1661.6 193.158 1642.98 186.324 1630.38 176.676C1617.79 166.76 1611.49 153.226 1611.49 136.074C1611.49 117.85 1619.53 102.976 1635.61 91.452C1651.96 79.66 1675 73.764 1704.75 73.764C1724.32 73.764 1741.33 76.712 1755.81 82.608C1770.55 88.236 1781.8 96.142 1789.57 106.326C1797.35 116.242 1801.23 127.23 1801.23 139.29H1750.18C1749.64 132.054 1745.22 126.292 1736.91 122.004C1728.87 117.448 1718.15 115.17 1704.75 115.17C1691.08 115.17 1680.63 117.046 1673.4 120.798C1666.16 124.282 1662.54 129.24 1662.54 135.672C1662.54 141.568 1665.09 146.124 1670.18 149.34C1675.27 152.556 1683.04 154.834 1693.5 156.174L1728.87 161.4C1753.8 165.42 1772.56 172.522 1785.15 182.706C1797.75 192.622 1804.05 206.29 1804.05 223.71C1804.05 242.202 1795.87 257.344 1779.52 269.136C1763.18 280.928 1739.46 286.824 1708.37 286.824Z"
    fill="white"
  />
</svg>
