  <svg
    width="1793"
    height="702"
    view-box="0 0 1793 702"
    fill="none"
    xmlns="http://www.w3.org/2000/svg"
  >
    <path
      d="M141.183 238H74.25V70.168H0.324V4.89998H215.442V70.168H141.183V238ZM453.261 238H367.347L300.747 168.403H293.088V238H226.155V4.89998H357.357C374.451 4.89998 389.658 8.34099 402.978 15.223C416.52 22.105 427.065 31.873 434.613 44.527C442.161 56.959 445.935 71.5 445.935 88.15C445.935 102.58 442.716 115.456 436.278 126.778C429.84 138.1 421.293 147.091 410.637 153.751C400.203 160.411 388.992 164.296 377.004 165.406L453.261 238ZM293.088 110.128H353.361C361.353 110.128 367.569 108.13 372.009 104.134C376.671 99.916 379.002 94.366 379.002 87.484C379.002 80.602 376.671 75.163 372.009 71.167C367.569 66.949 361.353 64.84 353.361 64.84H293.088V110.128ZM709.57 238H637.975L623.989 200.371H521.758L507.772 238H435.844L527.752 4.89998H617.662L709.57 238ZM569.044 72.166L542.737 143.761H603.01L576.703 72.166H569.044ZM775.392 238H708.459V4.89998H895.272V61.843H775.392V96.808H884.949V150.754H775.392V238ZM977.195 238H910.262V4.89998H1097.08V61.843H977.195V96.808H1086.75V150.754H977.195V238ZM1179 238H1112.07V4.89998H1179V238ZM1324.87 242.662C1300.23 242.662 1277.81 237.667 1257.6 227.677C1237.4 217.465 1221.42 203.146 1209.65 184.72C1198.11 166.294 1192.34 145.204 1192.34 121.45C1192.34 97.474 1198.11 76.384 1209.65 58.18C1221.42 39.754 1237.4 25.546 1257.6 15.556C1277.81 5.34399 1300.23 0.237985 1324.87 0.237985C1346.4 0.237985 1366.05 4.45598 1383.81 12.892C1401.79 21.106 1416.56 32.428 1428.1 46.858C1439.87 61.288 1447.75 77.494 1451.74 95.476H1382.81C1378.37 85.042 1371.05 76.606 1360.83 70.168C1350.62 63.508 1338.63 60.178 1324.87 60.178C1312.44 60.178 1301.23 62.731 1291.24 67.837C1281.25 72.943 1273.37 80.158 1267.59 89.482C1262.04 98.584 1259.27 109.24 1259.27 121.45C1259.27 133.438 1262.04 144.094 1267.59 153.418C1273.37 162.742 1281.25 169.957 1291.24 175.063C1301.23 180.169 1312.44 182.722 1324.87 182.722C1338.63 182.722 1350.62 179.392 1360.83 172.732C1371.05 165.85 1378.37 156.748 1382.81 145.426H1451.74C1447.75 164.074 1439.87 180.724 1428.1 195.376C1416.56 210.028 1401.79 221.572 1383.81 230.008C1366.05 238.444 1346.4 242.662 1324.87 242.662ZM1669.69 112.459H1792.9V238H1743.61L1740.62 216.688H1738.62C1731.07 224.014 1720.64 230.23 1707.32 235.336C1694 240.22 1680.34 242.662 1666.36 242.662C1641.71 242.662 1619.29 237.667 1599.09 227.677C1579.11 217.465 1563.24 203.146 1551.47 184.72C1539.93 166.294 1534.16 145.204 1534.16 121.45C1534.16 97.474 1539.93 76.384 1551.47 58.18C1563.24 39.754 1579.22 25.546 1599.42 15.556C1619.63 5.34399 1642.05 0.237985 1666.69 0.237985C1688.22 0.237985 1707.76 4.34498 1725.3 12.559C1742.84 20.773 1757.27 31.54 1768.59 44.86C1779.91 58.18 1787.68 72.61 1791.9 88.15H1720.97C1716.31 79.936 1709.2 73.276 1699.66 68.17C1690.11 62.842 1679.12 60.178 1666.69 60.178C1654.26 60.178 1643.05 62.731 1633.06 67.837C1623.07 72.943 1615.19 80.158 1609.41 89.482C1603.86 98.584 1601.09 109.24 1601.09 121.45C1601.09 133.438 1603.86 144.094 1609.41 153.418C1615.19 162.742 1623.07 169.957 1633.06 175.063C1643.05 180.169 1654.15 182.722 1666.36 182.722C1679.68 182.722 1691.11 180.058 1700.66 174.73C1710.2 169.402 1716.64 162.742 1719.97 154.75H1669.69V112.459Z"
      fill="white"
    />
    <path
      d="M141.183 238H74.25V70.168H0.324V4.89998H215.442V70.168H141.183V238ZM453.261 238H367.347L300.747 168.403H293.088V238H226.155V4.89998H357.357C374.451 4.89998 389.658 8.34099 402.978 15.223C416.52 22.105 427.065 31.873 434.613 44.527C442.161 56.959 445.935 71.5 445.935 88.15C445.935 102.58 442.716 115.456 436.278 126.778C429.84 138.1 421.293 147.091 410.637 153.751C400.203 160.411 388.992 164.296 377.004 165.406L453.261 238ZM293.088 110.128H353.361C361.353 110.128 367.569 108.13 372.009 104.134C376.671 99.916 379.002 94.366 379.002 87.484C379.002 80.602 376.671 75.163 372.009 71.167C367.569 66.949 361.353 64.84 353.361 64.84H293.088V110.128ZM709.57 238H637.975L623.989 200.371H521.758L507.772 238H435.844L527.752 4.89998H617.662L709.57 238ZM569.044 72.166L542.737 143.761H603.01L576.703 72.166H569.044ZM775.392 238H708.459V4.89998H895.272V61.843H775.392V96.808H884.949V150.754H775.392V238ZM977.195 238H910.262V4.89998H1097.08V61.843H977.195V96.808H1086.75V150.754H977.195V238ZM1179 238H1112.07V4.89998H1179V238ZM1324.87 242.662C1300.23 242.662 1277.81 237.667 1257.6 227.677C1237.4 217.465 1221.42 203.146 1209.65 184.72C1198.11 166.294 1192.34 145.204 1192.34 121.45C1192.34 97.474 1198.11 76.384 1209.65 58.18C1221.42 39.754 1237.4 25.546 1257.6 15.556C1277.81 5.34399 1300.23 0.237985 1324.87 0.237985C1346.4 0.237985 1366.05 4.45598 1383.81 12.892C1401.79 21.106 1416.56 32.428 1428.1 46.858C1439.87 61.288 1447.75 77.494 1451.74 95.476H1382.81C1378.37 85.042 1371.05 76.606 1360.83 70.168C1350.62 63.508 1338.63 60.178 1324.87 60.178C1312.44 60.178 1301.23 62.731 1291.24 67.837C1281.25 72.943 1273.37 80.158 1267.59 89.482C1262.04 98.584 1259.27 109.24 1259.27 121.45C1259.27 133.438 1262.04 144.094 1267.59 153.418C1273.37 162.742 1281.25 169.957 1291.24 175.063C1301.23 180.169 1312.44 182.722 1324.87 182.722C1338.63 182.722 1350.62 179.392 1360.83 172.732C1371.05 165.85 1378.37 156.748 1382.81 145.426H1451.74C1447.75 164.074 1439.87 180.724 1428.1 195.376C1416.56 210.028 1401.79 221.572 1383.81 230.008C1366.05 238.444 1346.4 242.662 1324.87 242.662ZM1669.69 112.459H1792.9V238H1743.61L1740.62 216.688H1738.62C1731.07 224.014 1720.64 230.23 1707.32 235.336C1694 240.22 1680.34 242.662 1666.36 242.662C1641.71 242.662 1619.29 237.667 1599.09 227.677C1579.11 217.465 1563.24 203.146 1551.47 184.72C1539.93 166.294 1534.16 145.204 1534.16 121.45C1534.16 97.474 1539.93 76.384 1551.47 58.18C1563.24 39.754 1579.22 25.546 1599.42 15.556C1619.63 5.34399 1642.05 0.237985 1666.69 0.237985C1688.22 0.237985 1707.76 4.34498 1725.3 12.559C1742.84 20.773 1757.27 31.54 1768.59 44.86C1779.91 58.18 1787.68 72.61 1791.9 88.15H1720.97C1716.31 79.936 1709.2 73.276 1699.66 68.17C1690.11 62.842 1679.12 60.178 1666.69 60.178C1654.26 60.178 1643.05 62.731 1633.06 67.837C1623.07 72.943 1615.19 80.158 1609.41 89.482C1603.86 98.584 1601.09 109.24 1601.09 121.45C1601.09 133.438 1603.86 144.094 1609.41 153.418C1615.19 162.742 1623.07 169.957 1633.06 175.063C1643.05 180.169 1654.15 182.722 1666.36 182.722C1679.68 182.722 1691.11 180.058 1700.66 174.73C1710.2 169.402 1716.64 162.742 1719.97 154.75H1669.69V112.459Z"
      fill="url(#paint0_linear_1_4)"
    />
    <path
      opacity="0.17"
      d="M1402.5 384L1372.55 384L1372.55 308.904L1339.47 308.904L1339.47 279.7L1435.72 279.7L1435.72 308.904L1402.5 308.904L1402.5 384ZM1525.45 384L1440.52 384L1440.52 279.7L1525.45 279.7L1525.45 304.732L1470.47 304.732L1470.47 319.632L1521.87 319.632L1521.87 343.77L1470.47 343.77L1470.47 358.968L1525.45 358.968L1525.45 384ZM1644.45 384L1612.42 384L1606.16 367.163L1560.42 367.163L1554.16 384L1521.97 384L1563.1 279.7L1603.33 279.7L1644.45 384ZM1581.57 309.798L1569.8 341.833L1596.77 341.833L1585 309.798L1581.57 309.798ZM1673.9 384L1643.95 384L1643.95 279.7L1686.72 279.7L1711.45 336.618L1715.03 336.618L1739.61 279.7L1782.38 279.7L1782.38 384L1752.43 384L1752.43 327.38L1748.85 327.38L1724.41 384L1702.06 384L1677.48 327.38L1673.9 327.38L1673.9 384Z"
      fill="white"
    />
    <g opacity="0.17">
      <path
        d="M318.495 591.855C402.998 591.855 471.501 522.972 471.501 438C471.501 353.029 402.998 284.146 318.495 284.146C233.992 284.146 165.488 353.029 165.488 438C165.488 522.972 233.992 591.855 318.495 591.855Z"
        stroke="white"
        stroke-width="44"
      />
      <path
        d="M319.333 427.088H396.531V506.183H365.652L363.774 492.756H362.522C357.793 497.372 351.255 501.288 342.91 504.505C334.564 507.582 326.009 509.121 317.246 509.121C301.806 509.121 287.758 505.974 275.1 499.68C262.581 493.246 252.636 484.224 245.264 472.615C238.031 461.006 234.414 447.719 234.414 432.753C234.414 417.647 238.031 404.36 245.264 392.891C252.636 381.282 262.651 372.33 275.309 366.036C287.966 359.602 302.015 356.385 317.455 356.385C330.947 356.385 343.188 358.973 354.176 364.148C365.165 369.323 374.206 376.107 381.3 384.499C388.394 392.891 393.263 401.982 395.905 411.773H351.464C348.543 406.598 344.092 402.402 338.111 399.185C332.13 395.828 325.244 394.149 317.455 394.149C309.665 394.149 302.641 395.758 296.382 398.975C290.122 402.192 285.184 406.738 281.568 412.612C278.09 418.347 276.352 425.06 276.352 432.753C276.352 440.306 278.09 447.019 281.568 452.894C285.184 458.768 290.122 463.314 296.382 466.531C302.641 469.748 309.596 471.356 317.246 471.356C325.592 471.356 332.755 469.678 338.737 466.321C344.718 462.964 348.752 458.768 350.838 453.733H319.333V427.088Z"
        fill="white"
      />
    </g>
    <defs>
      <linearGradient
        id="paint0_linear_1_4"
        x1="823"
        y1="200.5"
        x2="1947.5"
        y2="200.5"
        gradient-units="userSpaceOnUse"
      >
        <stop stop-color="#EB00FF" stop-opacity="0" />
        <stop offset="0.611912" stop-color="#EB00FF" stop-opacity="0.54" />
        <stop offset="1" stop-color="#EB00FF" />
      </linearGradient>
    </defs>
  </svg>
