<svg width="1798" height="214" viewBox="0 0 1798 214" fill="none" xmlns="http://www.w3.org/2000/svg">
<g clipPath="url(#clip0_1003_1427)">
<mask id="mask0_1003_1427" style="mask-type:alpha" maskUnits="userSpaceOnUse" x="8" y="-1" width="1791" height="215">
<path d="M128.327 210H77.5866V52.765H8.85156V3.50001H197.062V52.765H128.327V210ZM347.583 142.15L421.038 210H355.253L287.993 143.92H277.373V210H226.633V3.50001H339.618C354.172 3.50001 367.152 6.45001 378.558 12.35C389.965 18.25 398.815 26.6083 405.108 37.425C411.598 48.2417 414.843 60.73 414.843 74.89C414.843 88.067 411.697 99.768 405.403 109.995C399.307 120.222 391.145 128.187 380.918 133.89C370.692 139.397 359.777 142.15 348.173 142.15H347.583ZM277.373 98.195H336.963C345.223 98.195 351.812 96.032 356.728 91.705C361.645 87.182 364.103 81.183 364.103 73.71C364.103 66.237 361.645 60.337 356.728 56.01C351.812 51.4867 345.223 49.225 336.963 49.225H277.373V98.195ZM661.175 210H606.895L592.145 171.65H494.5L479.75 210H425.47L508.955 3.50001H577.69L661.175 210ZM539.93 54.83L511.905 127.4H574.74L546.715 54.83H539.93ZM731.109 210H680.369V3.50001H841.144V48.34H731.109V86.985H832.589V129.465H731.109V210ZM925.855 210H875.115V3.50001H1035.89V48.34H925.855V86.985H1027.33V129.465H925.855V210ZM1120.6 210H1069.86V3.50001H1120.6V210ZM1268.84 213.835C1247.41 213.835 1227.84 209.41 1210.14 200.56C1192.44 191.513 1178.48 178.927 1168.25 162.8C1158.02 146.477 1152.91 127.793 1152.91 106.75C1152.91 85.707 1158.02 67.122 1168.25 50.995C1178.48 34.6717 1192.44 22.085 1210.14 13.235C1227.84 4.18831 1247.41 -0.334991 1268.84 -0.334991C1287.13 -0.334991 1303.95 3.10671 1319.29 9.99001C1334.63 16.8733 1347.41 26.4117 1357.64 38.605C1367.87 50.7983 1374.95 64.663 1378.88 80.2H1326.07C1321.55 69.777 1314.18 61.418 1303.95 55.125C1293.72 48.635 1282.02 45.39 1268.84 45.39C1256.65 45.39 1245.54 47.9467 1235.51 53.06C1225.68 58.173 1217.91 65.352 1212.2 74.595C1206.5 83.838 1203.65 94.557 1203.65 106.75C1203.65 118.943 1206.5 129.662 1212.2 138.905C1217.91 148.148 1225.68 155.327 1235.51 160.44C1245.54 165.553 1256.65 168.11 1268.84 168.11C1282.22 168.11 1293.92 164.865 1303.95 158.375C1314.18 151.688 1321.55 142.838 1326.07 131.825H1378.88C1375.14 147.755 1368.06 161.915 1357.64 174.305C1347.41 186.695 1334.63 196.43 1319.29 203.51C1303.95 210.393 1287.13 213.835 1268.84 213.835ZM1605.99 100.85H1712.19V210H1674.43L1671.77 188.17H1670C1662.92 195.447 1653.29 201.543 1641.09 206.46C1628.9 211.377 1615.82 213.835 1601.86 213.835C1580.62 213.835 1561.15 209.41 1543.45 200.56C1525.94 191.513 1512.08 178.927 1501.85 162.8C1491.63 146.477 1486.51 127.793 1486.51 106.75C1486.51 85.707 1491.63 67.122 1501.85 50.995C1512.08 34.6717 1526.04 22.085 1543.74 13.235C1561.44 4.18831 1581.01 -0.334991 1602.45 -0.334991C1620.54 -0.334991 1637.16 3.10671 1652.3 9.99001C1667.45 16.6767 1680.03 25.7233 1690.06 37.13C1700.29 48.5367 1707.37 60.927 1711.3 74.3H1657.32C1652.2 65.647 1644.83 58.665 1635.19 53.355C1625.75 48.045 1614.84 45.39 1602.45 45.39C1590.25 45.39 1579.14 47.9467 1569.11 53.06C1559.28 58.173 1551.51 65.352 1545.81 74.595C1540.1 83.838 1537.25 94.557 1537.25 106.75C1537.25 118.943 1540.1 129.662 1545.81 138.905C1551.51 148.148 1559.28 155.327 1569.11 160.44C1578.95 165.553 1589.86 168.11 1601.86 168.11C1616.21 168.11 1628.41 164.963 1638.44 158.67C1648.66 152.18 1655.15 144.117 1657.91 134.48H1605.99V100.85ZM1798.14 210H1746.22V158.08H1798.14V210Z" fill="white"/>
</mask>
<g mask="url(#mask0_1003_1427)">
<path d="M1920 -42H0V1038H1920V-42Z" fill="white"/>
<path d="M1920 -42H0V1038H1920V-42Z" fill="url(#paint0_linear_1003_1427)"/>
</g>
<g opacity="0.3">
<path d="M1266.5 135.348C1282.33 135.348 1295.17 122.432 1295.17 106.5C1295.17 90.568 1282.33 77.652 1266.5 77.652C1250.66 77.652 1237.83 90.568 1237.83 106.5C1237.83 122.432 1250.66 135.348 1266.5 135.348Z" stroke="white" stroke-width="4"/>
<path d="M1266.65 104.454H1281.12V119.284H1275.33L1274.98 116.767H1274.75C1273.86 117.632 1272.64 118.367 1271.07 118.97C1269.51 119.547 1267.91 119.835 1266.26 119.835C1263.37 119.835 1260.74 119.245 1258.37 118.065C1256.02 116.859 1254.16 115.167 1252.78 112.99C1251.42 110.814 1250.74 108.322 1250.74 105.516C1250.74 102.684 1251.42 100.192 1252.78 98.042C1254.16 95.865 1256.03 94.187 1258.41 93.007C1260.78 91.8 1263.41 91.197 1266.3 91.197C1268.83 91.197 1271.12 91.682 1273.18 92.653C1275.24 93.623 1276.94 94.895 1278.27 96.469C1279.6 98.042 1280.51 99.747 1281 101.582H1272.68C1272.13 100.612 1271.29 99.825 1270.17 99.222C1269.05 98.593 1267.76 98.278 1266.3 98.278C1264.84 98.278 1263.53 98.58 1262.35 99.183C1261.18 99.786 1260.26 100.638 1259.58 101.74C1258.93 102.815 1258.6 104.074 1258.6 105.516C1258.6 106.932 1258.93 108.191 1259.58 109.293C1260.26 110.394 1261.18 111.246 1262.35 111.85C1263.53 112.453 1264.83 112.754 1266.26 112.754C1267.83 112.754 1269.17 112.44 1270.29 111.81C1271.41 111.181 1272.17 110.394 1272.56 109.45H1266.65V104.454Z" fill="white"/>
</g>
</g>
<defs>
<linearGradient id="paint0_linear_1003_1427" x1="800.5" y1="-567.5" x2="1620" y2="197.5" gradientUnits="userSpaceOnUse">
<stop stop-color="#EB00FF" stop-opacity="0"/>
<stop offset="0.734089" stop-color="#EB00FF" stop-opacity="0.54"/>
<stop offset="1" stop-color="#EB00FF"/>
</linearGradient>
<clipPath id="clip0_1003_1427">
<rect width="1798" height="214" fill="white"/>
</clipPath>
</defs>
</svg>
