        <svg
          viewBox="0 0 232 30"
          fill="none"
          xmlns="http://www.w3.org/2000/svg"
        >
          <path
            d="M16.4 29H9.52V7.68H0.2V0.999998H25.72V7.68H16.4V29ZM46.1297 19.8L56.0897 29H47.1697L38.0497 20.04H36.6097V29H29.7297V0.999998H45.0497C47.023 0.999998 48.783 1.4 50.3297 2.2C51.8764 3 53.0764 4.13333 53.9297 5.6C54.8097 7.06667 55.2497 8.76 55.2497 10.68C55.2497 12.4667 54.823 14.0533 53.9697 15.44C53.143 16.8267 52.0364 17.9067 50.6497 18.68C49.263 19.4267 47.783 19.8 46.2097 19.8H46.1297ZM36.6097 13.84H44.6897C45.8097 13.84 46.703 13.5467 47.3697 12.96C48.0364 12.3467 48.3697 11.5333 48.3697 10.52C48.3697 9.50667 48.0364 8.70667 47.3697 8.12C46.703 7.50667 45.8097 7.2 44.6897 7.2H36.6097V13.84ZM88.6506 29H81.2906L79.2906 23.8H66.0506L64.0506 29H56.6906L68.0106 0.999998H77.3306L88.6506 29ZM72.2106 7.96L68.4106 17.8H76.9306L73.1306 7.96H72.2106ZM98.1331 29H91.2531V0.999998H113.053V7.08H98.1331V12.32H111.893V18.08H98.1331V29ZM124.539 29H117.659V0.999998H139.459V7.08H124.539V12.32H138.299V18.08H124.539V29ZM150.946 29H144.066V0.999998H150.946V29ZM171.047 29.52C168.14 29.52 165.487 28.92 163.087 27.72C160.687 26.4933 158.793 24.7867 157.407 22.6C156.02 20.3867 155.327 17.8533 155.327 15C155.327 12.1467 156.02 9.62667 157.407 7.44C158.793 5.22667 160.687 3.52 163.087 2.32C165.487 1.09333 168.14 0.479998 171.047 0.479998C173.527 0.479998 175.807 0.946665 177.887 1.88C179.967 2.81333 181.7 4.10667 183.087 5.76C184.473 7.41333 185.433 9.29333 185.967 11.4H178.807C178.193 9.98667 177.193 8.85333 175.807 8C174.42 7.12 172.833 6.68 171.047 6.68C169.393 6.68 167.887 7.02667 166.527 7.72C165.193 8.41333 164.14 9.38667 163.367 10.64C162.593 11.8933 162.207 13.3467 162.207 15C162.207 16.6533 162.593 18.1067 163.367 19.36C164.14 20.6133 165.193 21.5867 166.527 22.28C167.887 22.9733 169.393 23.32 171.047 23.32C172.86 23.32 174.447 22.88 175.807 22C177.193 21.0933 178.193 19.8933 178.807 18.4H185.967C185.46 20.56 184.5 22.48 183.087 24.16C181.7 25.84 179.967 27.16 177.887 28.12C175.807 29.0533 173.527 29.52 171.047 29.52ZM216.761 14.2H231.161V29H226.041L225.681 26.04H225.441C224.481 27.0267 223.174 27.8533 221.521 28.52C219.868 29.1867 218.094 29.52 216.201 29.52C213.321 29.52 210.681 28.92 208.281 27.72C205.908 26.4933 204.028 24.7867 202.641 22.6C201.254 20.3867 200.561 17.8533 200.561 15C200.561 12.1467 201.254 9.62667 202.641 7.44C204.028 5.22667 205.921 3.52 208.321 2.32C210.721 1.09333 213.374 0.479998 216.281 0.479998C218.734 0.479998 220.988 0.946665 223.041 1.88C225.094 2.78666 226.801 4.01333 228.161 5.56C229.548 7.10667 230.508 8.78667 231.041 10.6H223.721C223.028 9.42667 222.028 8.48 220.721 7.76C219.441 7.04 217.961 6.68 216.281 6.68C214.628 6.68 213.121 7.02667 211.761 7.72C210.428 8.41333 209.374 9.38667 208.601 10.64C207.828 11.8933 207.441 13.3467 207.441 15C207.441 16.6533 207.828 18.1067 208.601 19.36C209.374 20.6133 210.428 21.5867 211.761 22.28C213.094 22.9733 214.574 23.32 216.201 23.32C218.148 23.32 219.801 22.8933 221.161 22.04C222.548 21.16 223.428 20.0667 223.801 18.76H216.761V14.2Z"
            fill="white"
          />
        </svg>
