<svg
  width="1920"
  height="238"
  viewBox="0 0 1920 238"
  fill="none"
  xmlns="http://www.w3.org/2000/svg"
>
  <path
    d="M105.802 265.392C79.9377 265.392 56.1477 259.902 34.4317 248.922C12.9597 237.698 -4.12027 222.082 -16.8083 202.074C-29.4963 181.822 -35.8403 158.764 -35.8403 132.9C-35.8403 107.036 -29.4963 84.1 -16.8083 64.092C-4.12027 43.84 12.9597 28.224 34.4317 17.244C56.1477 6.02 79.9377 0.407995 105.802 0.407995C127.518 0.407995 147.526 4.43399 165.826 12.486C184.126 20.294 199.62 31.396 212.308 45.792C224.996 60.188 233.902 76.658 239.026 95.202H185.224C178.88 80.318 168.51 68.606 154.114 60.066C139.962 51.282 123.858 46.89 105.802 46.89C88.9657 46.89 73.5937 50.55 59.6857 57.87C46.0217 64.946 35.1637 75.072 27.1117 88.248C19.0597 101.18 15.0337 116.064 15.0337 132.9C15.0337 149.736 19.0597 164.742 27.1117 177.918C35.1637 190.85 46.0217 200.976 59.6857 208.296C73.5937 215.372 88.9657 218.91 105.802 218.91C124.102 218.91 140.328 214.518 154.48 205.734C168.632 196.706 178.88 184.384 185.224 168.768H239.026C233.902 188.044 224.996 205.002 212.308 219.642C199.62 234.038 184.126 245.262 165.826 253.314C147.526 261.366 127.518 265.392 105.802 265.392ZM382.117 265.392C356.253 265.392 332.463 259.902 310.747 248.922C289.275 237.698 272.195 222.082 259.507 202.074C246.819 181.822 240.475 158.764 240.475 132.9C240.475 107.036 246.819 84.1 259.507 64.092C272.195 43.84 289.275 28.224 310.747 17.244C332.463 6.02 356.253 0.407995 382.117 0.407995C407.981 0.407995 431.649 6.02 453.121 17.244C474.837 28.224 492.039 43.84 504.727 64.092C517.415 84.1 523.759 107.036 523.759 132.9C523.759 158.764 517.415 181.822 504.727 202.074C492.039 222.082 474.837 237.698 453.121 248.922C431.649 259.902 407.981 265.392 382.117 265.392ZM382.117 218.91C398.709 218.91 413.837 215.372 427.501 208.296C441.409 200.976 452.389 190.85 460.441 177.918C468.493 164.742 472.519 149.736 472.519 132.9C472.519 116.064 468.493 101.18 460.441 88.248C452.389 75.072 441.409 64.946 427.501 57.87C413.837 50.55 398.709 46.89 382.117 46.89C365.281 46.89 349.909 50.55 336.001 57.87C322.337 64.946 311.479 75.072 303.427 88.248C295.375 101.18 291.349 116.064 291.349 132.9C291.349 149.736 295.375 164.742 303.427 177.918C311.479 190.85 322.337 200.976 336.001 208.296C349.909 215.372 365.281 218.91 382.117 218.91ZM590.457 261H539.583V4.79998H606.561L720.753 189.63H729.537V4.79998H780.411V261H713.433L599.241 76.17H590.457V261ZM932.101 261H881.227V53.844H791.557V4.79998H1021.77V53.844H932.101V261ZM1261.52 261H1206.98L1185.02 206.832H1054.73L1032.77 261H978.234L1084.74 4.79998H1154.65L1261.52 261ZM1115.85 56.772L1073.03 161.814H1166.72L1123.9 56.772H1115.85ZM1381.23 265.392C1355.36 265.392 1331.57 259.902 1309.86 248.922C1288.38 237.698 1271.3 222.082 1258.62 202.074C1245.93 181.822 1239.58 158.764 1239.58 132.9C1239.58 107.036 1245.93 84.1 1258.62 64.092C1271.3 43.84 1288.38 28.224 1309.86 17.244C1331.57 6.02 1355.36 0.407995 1381.23 0.407995C1402.94 0.407995 1422.95 4.43399 1441.25 12.486C1459.55 20.294 1475.04 31.396 1487.73 45.792C1500.42 60.188 1509.33 76.658 1514.45 95.202H1460.65C1454.3 80.318 1443.93 68.606 1429.54 60.066C1415.39 51.282 1399.28 46.89 1381.23 46.89C1364.39 46.89 1349.02 50.55 1335.11 57.87C1321.45 64.946 1310.59 75.072 1302.54 88.248C1294.48 101.18 1290.46 116.064 1290.46 132.9C1290.46 149.736 1294.48 164.742 1302.54 177.918C1310.59 190.85 1321.45 200.976 1335.11 208.296C1349.02 215.372 1364.39 218.91 1381.23 218.91C1399.53 218.91 1415.75 214.518 1429.9 205.734C1444.06 196.706 1454.3 184.384 1460.65 168.768H1514.45C1509.33 188.044 1500.42 205.002 1487.73 219.642C1475.04 234.038 1459.55 245.262 1441.25 253.314C1422.95 261.366 1402.94 265.392 1381.23 265.392ZM1642.03 261H1591.15V53.844H1501.48V4.79998H1731.7V53.844H1642.03V261ZM1843.22 265.392C1817.84 265.392 1796.13 261.854 1778.07 254.778C1760.26 247.458 1746.72 237.332 1737.45 224.4C1728.42 211.468 1723.9 196.706 1723.9 180.114H1774.05C1774.05 192.07 1779.9 201.952 1791.61 209.76C1803.33 217.324 1820.53 221.106 1843.22 221.106C1864.69 221.106 1880.31 218.3 1890.07 212.688C1900.07 206.832 1905.07 198.902 1905.07 188.898C1905.07 180.114 1901.54 173.404 1894.46 168.768C1887.38 163.888 1875.67 159.984 1859.32 157.056L1807.35 147.906C1781.98 143.514 1762.7 135.584 1749.52 124.116C1736.59 112.648 1730.13 96.91 1730.13 76.902C1730.13 62.262 1734.27 49.208 1742.57 37.74C1751.11 26.028 1763.43 16.878 1779.54 10.29C1795.88 3.70199 1815.28 0.407995 1837.73 0.407995C1862.37 0.407995 1883.36 4.06799 1900.68 11.388C1918.25 18.464 1931.55 28.468 1940.58 41.4C1949.6 54.088 1954.12 68.85 1954.12 85.686H1903.61C1903.61 73.73 1897.88 63.97 1886.41 56.406C1874.94 48.598 1858.71 44.694 1837.73 44.694C1818.7 44.694 1804.55 47.5 1795.27 53.112C1786 58.724 1781.37 66.532 1781.37 76.536C1781.37 84.588 1784.78 91.054 1791.61 95.934C1798.45 100.57 1809.43 104.23 1824.55 106.914L1871.4 114.966C1900.93 119.846 1922.4 128.142 1935.82 139.854C1949.48 151.566 1956.31 167.67 1956.31 188.166C1956.31 211.59 1946.55 230.378 1927.03 244.53C1907.51 258.438 1879.58 265.392 1843.22 265.392Z"
    fill="white"
  />
</svg>
